<!-- Generated by IcoMoon.io -->
<svg version="1.1" xmlns="http://www.w3.org/2000/svg" width="64" height="64" viewBox="0 0 64 64">
<title>worried-face-eyebrows</title>
<path d="M33 58v0c-13.807 0-25-11.193-25-25s11.193-25 25-25c13.807 0 25 11.193 25 25s-11.193 25-25 25zM33 56c12.703 0 23-10.297 23-23s-10.297-23-23-23c-12.703 0-23 10.297-23 23s10.297 23 23 23v0zM24 30c1.105 0 2-0.895 2-2s-0.895-2-2-2c-1.105 0-2 0.895-2 2s0.895 2 2 2v0zM42 30c1.105 0 2-0.895 2-2s-0.895-2-2-2c-1.105 0-2 0.895-2 2s0.895 2 2 2v0zM32.994 44c-5.994 0-8.994 2-8.994 2s2-6 9-6c7 0 9 6 9 6s-3.012-2-9.006-2v0zM41.243 19.934l-1.118 1.658 6.632 4.474 1.118-1.658-6.632-4.474zM18.125 24.408l1.118 1.658 6.632-4.474-1.118-1.658-6.632 4.474z"></path>
</svg>
