<!-- Generated by IcoMoon.io -->
<svg version="1.1" xmlns="http://www.w3.org/2000/svg" width="64" height="64" viewBox="0 0 64 64">
<title>laughing-face</title>
<path d="M33 58v0c-13.807 0-25-11.193-25-25s11.193-25 25-25c13.807 0 25 11.193 25 25s-11.193 25-25 25zM33 56c12.703 0 23-10.297 23-23s-10.297-23-23-23c-12.703 0-23 10.297-23 23s10.297 23 23 23v0zM37.343 27.586l5.657-5.657 5.657 5.657-1.414 1.414-4.243-4.243-4.243 4.243-1.414-1.414zM17.343 27.586l5.657-5.657 5.657 5.657-1.414 1.414-4.243-4.243-4.243 4.243-1.414-1.414zM18 38h30c0 0-2 12-15 12s-15-12-15-12zM20.689 40c0 0 2.575 8.027 12.36 8.027s12.235-8.027 12.235-8.027h-24.595z"></path>
</svg>
